<mxfile host="65bd71144e">
    <diagram id="-Lv3-TK4_qtdGH3zqlui" name="Page-1">
        <mxGraphModel dx="1163" dy="450" grid="1" gridSize="10" guides="1" tooltips="1" connect="1" arrows="1" fold="1" page="1" pageScale="1" pageWidth="1100" pageHeight="850" math="0" shadow="0">
            <root>
                <mxCell id="0"/>
                <mxCell id="1" parent="0"/>
                <mxCell id="7" value="" style="rounded=0;whiteSpace=wrap;html=1;" vertex="1" parent="1">
                    <mxGeometry x="60" y="90" width="900" height="470" as="geometry"/>
                </mxCell>
                <mxCell id="8" value="" style="rounded=1;whiteSpace=wrap;html=1;" vertex="1" parent="1">
                    <mxGeometry x="90" y="110" width="860" height="40" as="geometry"/>
                </mxCell>
                <mxCell id="9" value="Code" style="rounded=1;whiteSpace=wrap;html=1;" vertex="1" parent="1">
                    <mxGeometry x="90" y="170" width="640" height="330" as="geometry"/>
                </mxCell>
                <mxCell id="12" value="Upload" style="ellipse;whiteSpace=wrap;html=1;aspect=fixed;" vertex="1" parent="1">
                    <mxGeometry x="660" y="440" width="40" height="40" as="geometry"/>
                </mxCell>
                <mxCell id="13" value="Untitled.java" style="rounded=1;whiteSpace=wrap;html=1;" vertex="1" parent="1">
                    <mxGeometry x="110" y="190" width="120" height="20" as="geometry"/>
                </mxCell>
                <mxCell id="15" value="" style="rounded=1;whiteSpace=wrap;html=1;" vertex="1" parent="1">
                    <mxGeometry x="110" y="450" width="190" height="30" as="geometry"/>
                </mxCell>
                <mxCell id="16" value="pdf" style="ellipse;whiteSpace=wrap;html=1;aspect=fixed;" vertex="1" parent="1">
                    <mxGeometry x="120" y="450" width="30" height="30" as="geometry"/>
                </mxCell>
                <mxCell id="17" value="png" style="ellipse;whiteSpace=wrap;html=1;aspect=fixed;" vertex="1" parent="1">
                    <mxGeometry x="160" y="450" width="30" height="30" as="geometry"/>
                </mxCell>
                <mxCell id="18" value="clip" style="ellipse;whiteSpace=wrap;html=1;aspect=fixed;" vertex="1" parent="1">
                    <mxGeometry x="200" y="450" width="30" height="30" as="geometry"/>
                </mxCell>
                <mxCell id="19" value="share" style="ellipse;whiteSpace=wrap;html=1;aspect=fixed;" vertex="1" parent="1">
                    <mxGeometry x="240" y="450" width="30" height="30" as="geometry"/>
                </mxCell>
                <mxCell id="20" value="" style="rounded=1;whiteSpace=wrap;html=1;" vertex="1" parent="1">
                    <mxGeometry x="740" y="170" width="200" height="330" as="geometry"/>
                </mxCell>
                <mxCell id="22" value="Font size" style="rounded=1;whiteSpace=wrap;html=1;" vertex="1" parent="1">
                    <mxGeometry x="780" y="190" width="120" height="20" as="geometry"/>
                </mxCell>
                <mxCell id="23" value="Line height" style="rounded=1;whiteSpace=wrap;html=1;" vertex="1" parent="1">
                    <mxGeometry x="780" y="280" width="50" height="30" as="geometry"/>
                </mxCell>
                <mxCell id="24" value="Letter spacing" style="rounded=1;whiteSpace=wrap;html=1;" vertex="1" parent="1">
                    <mxGeometry x="840" y="280" width="60" height="30" as="geometry"/>
                </mxCell>
                <mxCell id="25" value="2 - 4 toggle" style="rounded=1;whiteSpace=wrap;html=1;" vertex="1" parent="1">
                    <mxGeometry x="780" y="320" width="30" height="30" as="geometry"/>
                </mxCell>
                <mxCell id="26" value="Font family" style="rounded=1;whiteSpace=wrap;html=1;" vertex="1" parent="1">
                    <mxGeometry x="780" y="220" width="120" height="20" as="geometry"/>
                </mxCell>
                <mxCell id="27" value="Line" style="rounded=1;whiteSpace=wrap;html=1;" vertex="1" parent="1">
                    <mxGeometry x="825" y="320" width="30" height="30" as="geometry"/>
                </mxCell>
                <mxCell id="28" value="Theme" style="rounded=1;whiteSpace=wrap;html=1;" vertex="1" parent="1">
                    <mxGeometry x="780" y="360" width="120" height="30" as="geometry"/>
                </mxCell>
                <mxCell id="31" value="&lt;pre style=&quot;margin-top: 0px;&quot;&gt;&lt;font style=&quot;font-size: 8px;&quot;&gt;Opacity&lt;/font&gt;&lt;/pre&gt;&lt;pre style=&quot;margin-top: 0px;&quot;&gt;&lt;font style=&quot;font-size: 8px;&quot;&gt;---------------------------&lt;/font&gt;&lt;/pre&gt;" style="text;html=1;whiteSpace=wrap;overflow=hidden;rounded=0;align=left;" vertex="1" parent="1">
                    <mxGeometry x="780" y="390" width="120" height="30" as="geometry"/>
                </mxCell>
                <mxCell id="34" value="bg image button" style="rounded=1;whiteSpace=wrap;html=1;" vertex="1" parent="1">
                    <mxGeometry x="780" y="430" width="120" height="20" as="geometry"/>
                </mxCell>
                <mxCell id="35" value="Font color" style="rounded=1;whiteSpace=wrap;html=1;" vertex="1" parent="1">
                    <mxGeometry x="780" y="250" width="120" height="20" as="geometry"/>
                </mxCell>
                <mxCell id="36" value="sun" style="rounded=1;whiteSpace=wrap;html=1;" vertex="1" parent="1">
                    <mxGeometry x="870" y="320" width="30" height="30" as="geometry"/>
                </mxCell>
                <mxCell id="37" value="" style="triangle;whiteSpace=wrap;html=1;direction=south;" vertex="1" parent="1">
                    <mxGeometry x="865" y="369.06" width="10" height="11.88" as="geometry"/>
                </mxCell>
                <mxCell id="38" value="Made with by Harsh and Jay" style="text;strokeColor=none;fillColor=none;align=left;verticalAlign=middle;spacingLeft=4;spacingRight=4;overflow=hidden;points=[[0,0.5],[1,0.5]];portConstraint=eastwest;rotatable=0;whiteSpace=wrap;html=1;" vertex="1" parent="1">
                    <mxGeometry x="435" y="520" width="170" height="30" as="geometry"/>
                </mxCell>
                <mxCell id="39" value="" style="whiteSpace=wrap;html=1;fillColor=#04FF24;" vertex="1" parent="1">
                    <mxGeometry x="110" y="350" width="570" height="25" as="geometry"/>
                </mxCell>
            </root>
        </mxGraphModel>
    </diagram>
</mxfile>